<svg width="20" height="21" viewBox="0 0 20 21" fill="none" xmlns="http://www.w3.org/2000/svg">
<path d="M9 6.5C9 8.15685 7.65685 9.5 6 9.5C4.34315 9.5 3 8.15685 3 6.5C3 4.84315 4.34315 3.5 6 3.5C7.65685 3.5 9 4.84315 9 6.5Z" fill="#2B2B2B"/>
<path d="M17 6.5C17 8.15685 15.6569 9.5 14 9.5C12.3431 9.5 11 8.15685 11 6.5C11 4.84315 12.3431 3.5 14 3.5C15.6569 3.5 17 4.84315 17 6.5Z" fill="#2B2B2B"/>
<path d="M12.9291 17.5C12.9758 17.1734 13 16.8395 13 16.5C13 14.8648 12.4393 13.3606 11.4998 12.1691C12.2352 11.7435 13.0892 11.5 14 11.5C16.7614 11.5 19 13.7386 19 16.5V17.5H12.9291Z" fill="#2B2B2B"/>
<path d="M6 11.5C8.76142 11.5 11 13.7386 11 16.5V17.5H1V16.5C1 13.7386 3.23858 11.5 6 11.5Z" fill="#2B2B2B"/>
</svg>
