<svg width="20" height="21" viewBox="0 0 20 21" fill="none" xmlns="http://www.w3.org/2000/svg">
<path d="M5 3.5C3.89543 3.5 3 4.39543 3 5.5V7.5C3 8.60457 3.89543 9.5 5 9.5H7C8.10457 9.5 9 8.60457 9 7.5V5.5C9 4.39543 8.10457 3.5 7 3.5H5Z" fill="#2B2B2B"/>
<path d="M5 11.5C3.89543 11.5 3 12.3954 3 13.5V15.5C3 16.6046 3.89543 17.5 5 17.5H7C8.10457 17.5 9 16.6046 9 15.5V13.5C9 12.3954 8.10457 11.5 7 11.5H5Z" fill="#2B2B2B"/>
<path d="M11 5.5C11 4.39543 11.8954 3.5 13 3.5H15C16.1046 3.5 17 4.39543 17 5.5V7.5C17 8.60457 16.1046 9.5 15 9.5H13C11.8954 9.5 11 8.60457 11 7.5V5.5Z" fill="#2B2B2B"/>
<path d="M11 13.5C11 12.3954 11.8954 11.5 13 11.5H15C16.1046 11.5 17 12.3954 17 13.5V15.5C17 16.6046 16.1046 17.5 15 17.5H13C11.8954 17.5 11 16.6046 11 15.5V13.5Z" fill="#2B2B2B"/>
</svg>
