<svg width="20" height="21" viewBox="0 0 20 21" fill="none" xmlns="http://www.w3.org/2000/svg">
<path d="M9 2.5C8.44772 2.5 8 2.94772 8 3.5C8 4.05228 8.44772 4.5 9 4.5H11C11.5523 4.5 12 4.05228 12 3.5C12 2.94772 11.5523 2.5 11 2.5H9Z" fill="#2B2B2B"/>
<path fill-rule="evenodd" clip-rule="evenodd" d="M4 5.5C4 4.39543 4.89543 3.5 6 3.5C6 5.15685 7.34315 6.5 9 6.5H11C12.6569 6.5 14 5.15685 14 3.5C15.1046 3.5 16 4.39543 16 5.5V16.5C16 17.6046 15.1046 18.5 14 18.5H6C4.89543 18.5 4 17.6046 4 16.5V5.5ZM7 9.5C6.44772 9.5 6 9.94772 6 10.5C6 11.0523 6.44772 11.5 7 11.5H7.01C7.56228 11.5 8.01 11.0523 8.01 10.5C8.01 9.94772 7.56228 9.5 7.01 9.5H7ZM10 9.5C9.44772 9.5 9 9.94772 9 10.5C9 11.0523 9.44772 11.5 10 11.5H13C13.5523 11.5 14 11.0523 14 10.5C14 9.94772 13.5523 9.5 13 9.5H10ZM7 13.5C6.44772 13.5 6 13.9477 6 14.5C6 15.0523 6.44772 15.5 7 15.5H7.01C7.56228 15.5 8.01 15.0523 8.01 14.5C8.01 13.9477 7.56228 13.5 7.01 13.5H7ZM10 13.5C9.44772 13.5 9 13.9477 9 14.5C9 15.0523 9.44772 15.5 10 15.5H13C13.5523 15.5 14 15.0523 14 14.5C14 13.9477 13.5523 13.5 13 13.5H10Z" fill="#2B2B2B"/>
</svg>
