<svg width="14" height="14" viewBox="0 0 14 14" fill="none" xmlns="http://www.w3.org/2000/svg">
<g id="Icon/Outline/globe-alt">
<path id="Icon" d="M12.25 7C12.25 9.89949 9.89949 12.25 7 12.25M12.25 7C12.25 4.1005 9.89949 1.75 7 1.75M12.25 7H1.75M7 12.25C4.1005 12.25 1.75 9.89949 1.75 7M7 12.25C7.9665 12.25 8.75 9.89949 8.75 7C8.75 4.1005 7.9665 1.75 7 1.75M7 12.25C6.0335 12.25 5.25 9.89949 5.25 7C5.25 4.1005 6.0335 1.75 7 1.75M1.75 7C1.75 4.1005 4.1005 1.75 7 1.75" stroke="#7C43DF" stroke-linecap="round" stroke-linejoin="round"/>
</g>
</svg>
