<svg width="138" height="33" viewBox="0 0 138 33" fill="none" xmlns="http://www.w3.org/2000/svg">
<path d="M23.8039 17.6902L20.6301 17.6902C20.3144 17.6902 20.0117 17.5648 19.7885 17.3416C19.5653 17.1184 19.4399 16.8157 19.4399 16.5C19.4399 16.1844 19.5653 15.8816 19.7885 15.6584C20.0117 15.4352 20.3144 15.3098 20.6301 15.3098L23.8039 15.3098C24.1196 15.3098 24.4223 15.4352 24.6455 15.6584C24.8687 15.8816 24.9941 16.1844 24.9941 16.5C24.9941 16.8157 24.8687 17.1184 24.6455 17.3416C24.4223 17.5648 24.1196 17.6902 23.8039 17.6902ZM20.2333 21.2608C20.2333 20.9452 20.1079 20.6424 19.8847 20.4192C19.6615 20.196 19.3588 20.0706 19.0431 20.0706L15.8693 20.0706C15.5536 20.0706 15.2509 20.196 15.0277 20.4192C14.8045 20.6424 14.6791 20.9452 14.6791 21.2608C14.6791 21.5765 14.8045 21.8792 15.0277 22.1024C15.2509 22.3256 15.5536 22.451 15.8693 22.451L19.0431 22.451C19.3588 22.451 19.6615 22.3256 19.8847 22.1024C20.1079 21.8792 20.2333 21.5765 20.2333 21.2608ZM5.95092 16.5C5.95092 16.1844 5.82552 15.8816 5.60232 15.6584C5.37911 15.4352 5.07638 15.3098 4.76072 15.3098L1.58685 15.3098C1.27119 15.3098 0.968454 15.4352 0.745248 15.6584C0.522041 15.8816 0.396646 16.1844 0.396646 16.5C0.396646 16.8157 0.522041 17.1184 0.745248 17.3416C0.968454 17.5648 1.27119 17.6902 1.58685 17.6902L4.76072 17.6902C5.07638 17.6902 5.37911 17.5648 5.60232 17.3416C5.82552 17.1184 5.95092 16.8157 5.95092 16.5ZM17.8529 16.5C17.8529 16.1844 17.7275 15.8816 17.5043 15.6584C17.2811 15.4352 16.9784 15.3098 16.6627 15.3098L8.72806 15.3098C8.41239 15.3098 8.10966 15.4352 7.88646 15.6584C7.66325 15.8816 7.53785 16.1844 7.53785 16.5C7.53785 16.8157 7.66325 17.1184 7.88646 17.3416C8.10966 17.5648 8.41239 17.6902 8.72806 17.6902L16.6627 17.6902C16.9784 17.6902 17.2811 17.5648 17.5043 17.3416C17.7275 17.1184 17.8529 16.8157 17.8529 16.5ZM20.2333 11.7392C20.2333 11.4236 20.1079 11.1208 19.8847 10.8976C19.6615 10.6744 19.3588 10.549 19.0431 10.549L13.4889 10.549C13.1732 10.549 12.8705 10.6744 12.6473 10.8976C12.4241 11.1208 12.2987 11.4236 12.2987 11.7392C12.2987 12.0549 12.4241 12.3576 12.6473 12.5808C12.8705 12.804 13.1732 12.9294 13.4889 12.9294L19.0431 12.9294C19.3588 12.9294 19.6615 12.804 19.8847 12.5808C20.1079 12.3576 20.2333 12.0549 20.2333 11.7392ZM13.0921 21.2608C13.0921 20.9452 12.9667 20.6424 12.7435 20.4192C12.5203 20.196 12.2176 20.0706 11.9019 20.0706L6.34765 20.0706C6.03199 20.0706 5.72926 20.196 5.50605 20.4192C5.28285 20.6424 5.15745 20.9452 5.15745 21.2608C5.15745 21.5765 5.28285 21.8792 5.50605 22.1024C5.72926 22.3256 6.03199 22.451 6.34765 22.451L11.9019 22.451C12.2176 22.451 12.5203 22.3256 12.7435 22.1024C12.9667 21.8792 13.0921 21.5765 13.0921 21.2608ZM15.4725 6.97841C15.4725 6.66275 15.3471 6.36002 15.1239 6.13681C14.9007 5.9136 14.598 5.78821 14.2823 5.78821L11.1085 5.78821C10.7928 5.78821 10.4901 5.9136 10.2669 6.13681C10.0437 6.36002 9.91826 6.66275 9.91826 6.97841C9.91826 7.29407 10.0437 7.5968 10.2669 7.82001C10.4901 8.04321 10.7928 8.16861 11.1085 8.16861L14.2823 8.16861C14.598 8.16861 14.9007 8.04321 15.1239 7.82001C15.3471 7.5968 15.4725 7.29407 15.4725 6.97841ZM10.7117 11.7392C10.7117 11.4236 10.5863 11.1208 10.3631 10.8976C10.1399 10.6744 9.83718 10.549 9.52152 10.549L6.34765 10.549C6.03199 10.549 5.72926 10.6744 5.50605 10.8976C5.28285 11.1208 5.15745 11.4236 5.15745 11.7392C5.15745 12.0549 5.28285 12.3576 5.50605 12.5808C5.72926 12.804 6.03199 12.9294 6.34765 12.9294L9.52152 12.9294C9.83718 12.9294 10.1399 12.804 10.3631 12.5808C10.5863 12.3576 10.7117 12.0549 10.7117 11.7392ZM15.4725 26.0216C15.4725 25.706 15.3471 25.4032 15.1239 25.18C14.9007 24.9568 14.598 24.8314 14.2823 24.8314L11.1085 24.8314C10.7928 24.8314 10.4901 24.9568 10.2669 25.18C10.0437 25.4032 9.91826 25.706 9.91826 26.0216C9.91826 26.3373 10.0437 26.64 10.2669 26.8632C10.4901 27.0864 10.7928 27.2118 11.1085 27.2118L14.2823 27.2118C14.598 27.2118 14.9007 27.0864 15.1239 26.8632C15.3471 26.64 15.4725 26.3373 15.4725 26.0216Z" fill="white"/>
<path d="M34.1471 8.04428H40.3631C42.1783 8.04428 43.7549 8.23955 45.0929 8.63008C46.4308 9.02062 47.5373 9.58111 48.4124 10.3116C49.2948 11.0348 49.9493 11.9171 50.376 12.9585C50.8099 13.9927 51.0268 15.1571 51.0268 16.4516C51.0268 17.6811 50.8135 18.8201 50.3868 19.8688C49.9601 20.9102 49.3092 21.8142 48.4341 22.5809C47.559 23.3402 46.4525 23.9369 45.1146 24.3708C43.7766 24.7975 42.2 25.0108 40.3848 25.0108L34.1471 25V8.04428ZM41.2092 22.0276C42.2362 22.0276 43.1366 21.8974 43.9104 21.6371C44.6843 21.3695 45.3279 20.9934 45.8414 20.5088C46.3621 20.0243 46.7527 19.4385 47.013 18.7514C47.2734 18.0644 47.4036 17.2978 47.4036 16.4516C47.4036 15.6199 47.2734 14.8714 47.013 14.2061C46.7527 13.5335 46.3621 12.9657 45.8414 12.5029C45.3279 12.0328 44.6843 11.6712 43.9104 11.4181C43.1366 11.1649 42.2362 11.0384 41.2092 11.0384H37.5859V22.0276H41.2092ZM54.0752 7.0137H57.2863V13.1755C57.9588 12.8066 58.7074 12.5137 59.5318 12.2968C60.3635 12.0798 61.235 11.9713 62.1462 11.9713C63.2021 11.9713 64.1495 12.1268 64.9885 12.4378C65.8346 12.7488 66.5506 13.1972 67.1364 13.783C67.7222 14.3615 68.1706 15.0667 68.4816 15.8984C68.7998 16.7301 68.9589 17.6666 68.9589 18.7081V25H65.7587V18.8382C65.7587 18.2307 65.6611 17.6775 65.4658 17.1785C65.2705 16.6722 64.9849 16.2383 64.6088 15.8767C64.2327 15.5151 63.7735 15.2366 63.2311 15.0414C62.6959 14.8389 62.0884 14.7376 61.4086 14.7376C60.5913 14.7376 59.832 14.8678 59.1304 15.1281C58.4289 15.3885 57.8142 15.7176 57.2863 16.1153V25H54.0752V7.0137ZM71.953 20.9645C71.953 20.3497 72.0868 19.7893 72.3544 19.283C72.622 18.7768 73.0234 18.3428 73.5585 17.9812C74.0937 17.6124 74.7591 17.3303 75.5546 17.1351C76.3574 16.9326 77.2903 16.8313 78.3534 16.8313C79.1417 16.8313 79.9698 16.8892 80.8377 17.0049C81.7128 17.1206 82.6132 17.2978 83.5389 17.5364C83.5027 17.1314 83.3798 16.759 83.17 16.4191C82.9603 16.0719 82.6674 15.7754 82.2913 15.5295C81.9225 15.2764 81.4741 15.0811 80.9462 14.9437C80.4254 14.8063 79.8324 14.7376 79.1671 14.7376C78.8054 14.7376 78.4077 14.7593 77.9737 14.8027C77.5398 14.8461 77.0914 14.9112 76.6286 14.998C76.1657 15.0848 75.7065 15.1932 75.2509 15.3234C74.8025 15.4536 74.383 15.6091 73.9925 15.7899L73.0161 13.1538C73.5007 12.9802 74.0178 12.8211 74.5674 12.6765C75.1243 12.5318 75.692 12.4089 76.2706 12.3076C76.8492 12.1991 77.4277 12.116 78.0063 12.0581C78.5849 12.0003 79.1454 11.9713 79.6878 11.9713C82.0816 11.9713 83.8607 12.5824 85.0251 13.8047C86.1894 15.0269 86.7716 16.9 86.7716 19.424V25H83.5606V23.7959C83.2279 23.9911 82.8627 24.1755 82.4649 24.3491C82.0744 24.5227 81.6477 24.6746 81.1848 24.8047C80.722 24.9349 80.2229 25.0362 79.6878 25.1085C79.1598 25.188 78.5993 25.2278 78.0063 25.2278C77.0083 25.2278 76.1296 25.1193 75.3702 24.9024C74.618 24.6854 73.9888 24.3853 73.4826 24.002C72.9764 23.6187 72.593 23.1703 72.3327 22.6568C72.0796 22.1361 71.953 21.572 71.953 20.9645ZM75.3376 20.856C75.3376 21.0657 75.3919 21.2682 75.5004 21.4635C75.6088 21.6515 75.7824 21.8215 76.0211 21.9734C76.2597 22.118 76.5635 22.2373 76.9323 22.3313C77.3084 22.4181 77.7604 22.4615 78.2883 22.4615C78.8525 22.4615 79.3985 22.4109 79.9264 22.3096C80.4544 22.2084 80.9462 22.0746 81.4018 21.9083C81.8574 21.7419 82.2696 21.5503 82.6385 21.3333C83.0073 21.1163 83.3147 20.8922 83.5606 20.6607V20.0966C83.0688 19.9592 82.5806 19.8435 82.0961 19.7495C81.6187 19.6555 81.1595 19.5831 80.7183 19.5325C80.2844 19.4747 79.8722 19.4349 79.4816 19.4132C79.0983 19.3915 78.7621 19.3806 78.4728 19.3806C77.8725 19.3806 77.3735 19.4204 76.9757 19.5C76.5779 19.5795 76.2561 19.688 76.0102 19.8254C75.7643 19.9556 75.5908 20.1111 75.4895 20.2919C75.3883 20.4727 75.3376 20.6607 75.3376 20.856ZM90.4166 20.9645C90.4166 20.3497 90.5504 19.7893 90.818 19.283C91.0856 18.7768 91.487 18.3428 92.0222 17.9812C92.5573 17.6124 93.2227 17.3303 94.0182 17.1351C94.821 16.9326 95.7539 16.8313 96.8171 16.8313C97.6054 16.8313 98.4334 16.8892 99.3013 17.0049C100.176 17.1206 101.077 17.2978 102.002 17.5364C101.966 17.1314 101.843 16.759 101.634 16.4191C101.424 16.0719 101.131 15.7754 100.755 15.5295C100.386 15.2764 99.9377 15.0811 99.4098 14.9437C98.8891 14.8063 98.296 14.7376 97.6307 14.7376C97.2691 14.7376 96.8713 14.7593 96.4374 14.8027C96.0034 14.8461 95.555 14.9112 95.0922 14.998C94.6293 15.0848 94.1701 15.1932 93.7145 15.3234C93.2661 15.4536 92.8466 15.6091 92.4561 15.7899L91.4797 13.1538C91.9643 12.9802 92.4814 12.8211 93.031 12.6765C93.5879 12.5318 94.1556 12.4089 94.7342 12.3076C95.3128 12.1991 95.8913 12.116 96.4699 12.0581C97.0485 12.0003 97.609 11.9713 98.1514 11.9713C100.545 11.9713 102.324 12.5824 103.489 13.8047C104.653 15.0269 105.235 16.9 105.235 19.424V25H102.024V23.7959C101.692 23.9911 101.326 24.1755 100.929 24.3491C100.538 24.5227 100.111 24.6746 99.6484 24.8047C99.1856 24.9349 98.6866 25.0362 98.1514 25.1085C97.6234 25.188 97.0629 25.2278 96.4699 25.2278C95.4719 25.2278 94.5932 25.1193 93.8338 24.9024C93.0817 24.6854 92.4525 24.3853 91.9462 24.002C91.44 23.6187 91.0567 23.1703 90.7963 22.6568C90.5432 22.1361 90.4166 21.572 90.4166 20.9645ZM93.8013 20.856C93.8013 21.0657 93.8555 21.2682 93.964 21.4635C94.0725 21.6515 94.246 21.8215 94.4847 21.9734C94.7234 22.118 95.0271 22.2373 95.3959 22.3313C95.772 22.4181 96.224 22.4615 96.752 22.4615C97.3161 22.4615 97.8621 22.4109 98.39 22.3096C98.918 22.2084 99.4098 22.0746 99.8654 21.9083C100.321 21.7419 100.733 21.5503 101.102 21.3333C101.471 21.1163 101.778 20.8922 102.024 20.6607V20.0966C101.532 19.9592 101.044 19.8435 100.56 19.7495C100.082 19.6555 99.6231 19.5831 99.182 19.5325C98.748 19.4747 98.3358 19.4349 97.9453 19.4132C97.562 19.3915 97.2257 19.3806 96.9364 19.3806C96.3361 19.3806 95.8371 19.4204 95.4393 19.5C95.0416 19.5795 94.7197 19.688 94.4738 19.8254C94.228 19.9556 94.0544 20.1111 93.9531 20.2919C93.8519 20.4727 93.8013 20.6607 93.8013 20.856ZM109.575 12.1991H112.786V13.284C113.588 12.7922 114.369 12.4523 115.129 12.2642C115.895 12.069 116.644 11.9713 117.374 11.9713C118.394 11.9713 119.331 12.134 120.184 12.4595C121.037 12.7849 121.768 13.2767 122.375 13.9348C122.845 13.5732 123.308 13.2695 123.764 13.0236C124.22 12.7705 124.675 12.568 125.131 12.4161C125.586 12.257 126.049 12.1449 126.519 12.0798C126.989 12.0075 127.474 11.9713 127.973 11.9713C129.022 11.9713 129.973 12.116 130.826 12.4053C131.68 12.6873 132.406 13.1104 133.007 13.6745C133.614 14.2386 134.081 14.9437 134.406 15.7899C134.739 16.6288 134.905 17.6015 134.905 18.7081V25H131.705V19.2288C131.705 18.5272 131.604 17.9017 131.401 17.352C131.206 16.7952 130.927 16.3287 130.566 15.9526C130.211 15.5693 129.785 15.28 129.286 15.0848C128.794 14.8823 128.251 14.781 127.658 14.781C127.333 14.781 127 14.8136 126.66 14.8786C126.321 14.9365 125.988 15.0305 125.662 15.1607C125.344 15.2909 125.044 15.4572 124.762 15.6597C124.48 15.855 124.234 16.0864 124.024 16.354V25H120.824V19.2288C120.824 18.5272 120.723 17.9017 120.52 17.352C120.325 16.7952 120.047 16.3287 119.685 15.9526C119.331 15.5693 118.9 15.28 118.394 15.0848C117.895 14.8823 117.345 14.781 116.745 14.781C116.376 14.781 116.004 14.8208 115.628 14.9003C115.259 14.9727 114.901 15.0775 114.554 15.2149C114.214 15.3523 113.892 15.5187 113.588 15.714C113.292 15.9092 113.024 16.1298 112.786 16.3757V25H109.575V12.1991Z" fill="white"/>
</svg>
