<svg width="20" height="21" viewBox="0 0 20 21" fill="none" xmlns="http://www.w3.org/2000/svg">
<path fill-rule="evenodd" clip-rule="evenodd" d="M4 4.5C4 3.39543 4.89543 2.5 6 2.5H10.5858C11.1162 2.5 11.6249 2.71071 12 3.08579L15.4142 6.5C15.7893 6.87507 16 7.38378 16 7.91421V16.5C16 17.6046 15.1046 18.5 14 18.5H6C4.89543 18.5 4 17.6046 4 16.5V4.5ZM6 10.5C6 9.94772 6.44772 9.5 7 9.5H13C13.5523 9.5 14 9.94772 14 10.5C14 11.0523 13.5523 11.5 13 11.5H7C6.44772 11.5 6 11.0523 6 10.5ZM7 13.5C6.44772 13.5 6 13.9477 6 14.5C6 15.0523 6.44772 15.5 7 15.5H13C13.5523 15.5 14 15.0523 14 14.5C14 13.9477 13.5523 13.5 13 13.5H7Z" fill="#2B2B2B"/>
</svg>
