<svg width="20" height="21" viewBox="0 0 20 21" fill="none" xmlns="http://www.w3.org/2000/svg">
<path fill-rule="evenodd" clip-rule="evenodd" d="M11.4892 3.67094C11.1102 2.10969 8.8898 2.10969 8.51078 3.67094C8.26594 4.67949 7.11045 5.15811 6.22416 4.61809C4.85218 3.78212 3.28212 5.35218 4.11809 6.72416C4.65811 7.61045 4.17949 8.76593 3.17094 9.01078C1.60969 9.3898 1.60969 11.6102 3.17094 11.9892C4.17949 12.2341 4.65811 13.3896 4.11809 14.2758C3.28212 15.6478 4.85218 17.2179 6.22417 16.3819C7.11045 15.8419 8.26594 16.3205 8.51078 17.3291C8.8898 18.8903 11.1102 18.8903 11.4892 17.3291C11.7341 16.3205 12.8896 15.8419 13.7758 16.3819C15.1478 17.2179 16.7179 15.6478 15.8819 14.2758C15.3419 13.3896 15.8205 12.2341 16.8291 11.9892C18.3903 11.6102 18.3903 9.3898 16.8291 9.01078C15.8205 8.76593 15.3419 7.61045 15.8819 6.72416C16.7179 5.35218 15.1478 3.78212 13.7758 4.61809C12.8896 5.15811 11.7341 4.67949 11.4892 3.67094ZM10 13.5C11.6569 13.5 13 12.1569 13 10.5C13 8.84315 11.6569 7.5 10 7.5C8.34315 7.5 7 8.84315 7 10.5C7 12.1569 8.34315 13.5 10 13.5Z" fill="#2B2B2B"/>
</svg>
